<?xml version="1.0" standalone="no"?>
<!DOCTYPE svg PUBLIC "-//W3C//DTD SVG 20010904//EN"
 "http://www.w3.org/TR/2001/REC-SVG-20010904/DTD/svg10.dtd">
<svg version="1.0" xmlns="http://www.w3.org/2000/svg"
 width="500.000000pt" height="500.000000pt" viewBox="0 0 500.000000 500.000000"
 preserveAspectRatio="xMidYMid meet">

<g transform="translate(0.000000,500.000000) scale(0.100000,-0.100000)"
fill="#000000" stroke="none">
<path d="M3861 4594 c-240 -82 -659 -312 -763 -420 -38 -39 -41 -48 -68 -204
-40 -232 -72 -375 -107 -480 -37 -113 -41 -117 -111 -102 -175 39 -382 41
-596 6 l-110 -17 -26 31 c-62 74 -148 279 -185 440 -20 85 -19 335 1 529 9 83
14 159 11 167 -11 28 -36 17 -88 -36 -160 -167 -378 -518 -379 -611 0 -39 40
-135 106 -256 54 -99 120 -260 146 -354 13 -51 10 -57 -52 -89 -50 -26 -223
-147 -276 -193 -90 -78 -110 -142 -89 -295 9 -66 0 -79 -118 -169 -117 -88
-215 -191 -246 -257 -22 -46 -23 -53 -12 -120 8 -50 9 -84 2 -115 -16 -66 -13
-146 8 -220 34 -127 96 -201 200 -240 41 -15 72 -39 135 -102 95 -97 154 -130
287 -158 74 -15 350 -6 484 16 55 9 143 17 195 18 112 1 144 -12 188 -76 77
-113 72 -205 -27 -477 -33 -92 -39 -161 -17 -221 31 -89 160 -229 223 -245 18
-5 34 2 61 23 20 16 87 67 147 113 195 147 618 494 682 558 14 14 31 22 41 19
188 -56 336 -89 350 -80 25 16 19 36 -31 100 -25 32 -48 68 -52 80 l-6 22 128
-5 c135 -6 205 6 211 36 1 8 -9 29 -24 45 -80 92 -150 274 -225 584 -32 135
-64 264 -70 286 -11 38 -10 40 23 70 19 16 57 46 84 65 33 24 50 43 52 60 3
22 -6 30 -60 59 -141 75 -188 103 -188 113 0 6 21 40 48 77 49 68 107 162 136
218 20 40 20 69 0 77 -9 3 -101 3 -205 -1 -145 -5 -189 -3 -189 6 0 7 32 45
70 86 39 41 70 78 70 82 -1 21 -24 39 -92 72 -65 32 -73 39 -76 67 -5 48 36
88 143 139 51 25 98 51 105 60 10 13 8 31 -14 108 -75 253 -88 334 -67 403 5
16 14 49 21 74 37 127 192 394 330 568 89 112 61 127 -119 66z m-118 -221
c-110 -169 -204 -388 -217 -508 -8 -78 8 -191 44 -313 17 -53 30 -102 30 -109
0 -7 -28 -25 -62 -42 -198 -94 -252 -271 -109 -353 23 -13 41 -25 41 -28 0 -3
-14 -21 -30 -40 -34 -39 -60 -90 -60 -115 0 -35 30 -73 70 -89 30 -12 73 -16
166 -16 l125 0 -22 -40 c-13 -22 -56 -84 -96 -138 -40 -53 -73 -103 -73 -109
0 -22 37 -51 117 -92 129 -65 126 -60 65 -120 -63 -61 -64 -70 -22 -249 17
-70 40 -167 51 -217 45 -192 82 -309 142 -438 22 -48 37 -90 33 -94 -9 -10
-129 15 -183 38 -60 25 -93 22 -112 -13 -15 -25 -13 -32 16 -102 18 -45 26
-76 19 -76 -6 1 -49 14 -96 30 -47 17 -94 30 -106 30 -11 0 -46 -25 -80 -57
-94 -92 -492 -420 -639 -528 -22 -16 -65 -51 -96 -77 -31 -26 -63 -48 -72 -48
-17 0 -76 62 -112 121 -23 36 -26 49 -23 108 3 42 17 99 37 156 48 129 60 189
61 288 0 112 -32 191 -105 255 -92 81 -204 93 -465 52 -184 -29 -388 -29 -480
-1 -71 22 -163 79 -180 112 -7 11 -10 22 -8 24 2 1 116 8 253 15 138 7 253 14
256 16 4 2 69 -1 145 -6 147 -11 250 -31 454 -87 105 -29 142 -34 235 -35 131
-1 206 16 320 72 83 41 159 100 195 150 32 45 9 43 -68 -5 -161 -100 -256
-129 -422 -129 -107 1 -138 5 -215 28 -257 78 -353 96 -545 103 -115 4 -196 1
-310 -12 -194 -22 -379 -25 -441 -6 -129 37 -188 161 -167 346 7 55 7 100 0
130 -15 71 1 109 83 191 38 39 106 97 150 129 140 103 150 121 141 262 -11
158 -4 167 273 348 189 124 285 163 471 193 192 31 237 36 385 36 150 1 212
-6 332 -36 36 -9 47 -7 75 9 91 53 145 224 224 708 17 103 16 103 164 202 73
49 472 262 492 263 4 0 -18 -39 -49 -87z m-1961 -200 c-5 -145 10 -321 38
-428 29 -107 93 -270 130 -328 33 -53 37 -67 16 -67 -8 0 -47 -11 -87 -25 -41
-13 -76 -21 -80 -17 -3 4 -20 50 -38 102 -18 52 -72 175 -122 273 -62 124 -89
188 -89 213 0 23 15 63 42 112 56 105 179 292 188 287 4 -2 5 -57 2 -122z"/>
<path d="M2285 2908 c-110 -56 -265 -170 -265 -193 0 -25 247 -158 283 -153
13 2 24 14 29 33 20 69 38 195 38 263 0 68 -1 72 -22 72 -13 -1 -41 -10 -63
-22z"/>
</g>
</svg>
